<svg xmlns="http://www.w3.org/2000/svg" xmlns:xlink="http://www.w3.org/1999/xlink" width="500" zoomAndPan="magnify" viewBox="0 0 375 374.999991" height="500" preserveAspectRatio="xMidYMid meet" version="1.0"><defs><g/><clipPath id="31ed8e0a36"><path d="M 30.183594 24.457031 L 348 24.457031 L 348 342 L 30.183594 342 Z M 30.183594 24.457031 " clip-rule="nonzero"/></clipPath><clipPath id="203a3cb667"><path d="M 33 30 L 351.183594 30 L 351.183594 347.707031 L 33 347.707031 Z M 33 30 " clip-rule="nonzero"/></clipPath></defs><rect x="-37.5" width="450" fill="#ffffff" y="-37.499999" height="449.999989" fill-opacity="1"/><rect x="-37.5" width="450" fill="#ffffff" y="-37.499999" height="449.999989" fill-opacity="1"/><rect x="-37.5" width="450" fill="#ff5757" y="-37.499999" height="449.999989" fill-opacity="1"/><path fill="#ffffff" d="M 342.226562 185.632812 C 342.15625 217.9375 331.410156 249.964844 312.394531 275.988281 C 294.273438 300.839844 268.78125 320.027344 239.910156 330.449219 C 209.941406 341.289062 176.730469 342.53125 146.070312 334.109375 C 116.375 325.894531 89.4375 308.707031 69.386719 285.238281 C 49.132812 261.492188 36.316406 231.8125 33.078125 200.75 C 29.632812 167.546875 38.246094 133.378906 55.953125 105.214844 C 72.28125 79.191406 96.328125 58.347656 124.367188 45.851562 C 153.582031 32.875 186.652344 29.285156 218.003906 35.636719 C 248.179688 41.710938 276.222656 57.035156 297.785156 79.054688 C 319.488281 101.210938 334.304688 129.71875 339.816406 160.300781 C 341.398438 168.996094 342.226562 177.832031 342.226562 186.667969 C 342.226562 189.015625 342.296875 186.738281 342.226562 185.632812 C 342.15625 153.949219 333.199219 123.023438 315.289062 96.792969 C 297.234375 70.425781 271.125 49.855469 241.222656 38.742188 C 210.214844 27.214844 175.628906 25.972656 143.796875 35.292969 C 113.070312 44.265625 85.507812 62.902344 65.597656 88.097656 C 45.617188 113.359375 33.972656 144.5625 32.386719 176.726562 C 30.871094 207.582031 37.28125 238.230469 52.714844 265.082031 C 68.492188 292.625 92.742188 315.058594 121.476562 328.585938 C 151.515625 342.738281 185.964844 346.742188 218.484375 340.046875 C 249.832031 333.625 278.769531 317.265625 300.613281 293.796875 C 322.589844 270.257812 336.851562 239.957031 340.988281 207.996094 C 341.882812 200.886719 342.296875 193.777344 342.296875 186.597656 C 342.296875 185.496094 342.226562 183.214844 342.226562 185.632812 Z M 342.226562 185.632812 " fill-opacity="1" fill-rule="nonzero"/><path fill="#ffffff" d="M 229.785156 335.558594 C 198.984375 342.738281 166.464844 340.527344 137.046875 328.863281 C 108.453125 317.472656 83.511719 297.59375 66.148438 272.125 C 47.613281 244.996094 37.347656 211.101562 39.347656 178.109375 C 41.277344 146.976562 52.851562 116.742188 72.003906 92.171875 C 111.347656 41.78125 179.761719 20.449219 240.667969 39.710938 C 269.675781 48.890625 295.71875 66.628906 314.804688 90.375 C 335.128906 115.570312 347.117188 147.046875 348.910156 179.351562 C 352.492188 243.40625 311.015625 304.773438 252.246094 328.449219 C 244.941406 331.347656 237.429688 333.695312 229.785156 335.558594 C 229.507812 335.628906 229.992188 338.941406 229.785156 339.011719 C 261.613281 331.347656 290.484375 313.882812 311.84375 288.964844 C 332.71875 264.597656 345.671875 233.8125 348.566406 201.855469 C 351.320312 171.34375 345.878906 140.28125 331.824219 113.015625 C 317.078125 84.371094 293.308594 60.832031 264.648438 46.128906 C 235.847656 31.289062 202.636719 25.902344 170.601562 30.875 C 138.078125 35.914062 107.558594 51.375 84.269531 74.773438 C 61.738281 97.484375 46.511719 127.097656 41.207031 158.710938 C 36.179688 188.667969 39.554688 220.285156 51.335938 248.308594 C 63.804688 277.992188 85.648438 303.324219 113.070312 320.234375 C 140.628906 337.148438 173.285156 345.222656 205.53125 342.738281 C 213.730469 342.117188 221.792969 340.804688 229.785156 338.941406 C 230.058594 338.941406 229.578125 335.628906 229.785156 335.558594 Z M 229.785156 335.558594 " fill-opacity="1" fill-rule="nonzero"/><g clip-path="url(#31ed8e0a36)"><path fill="#ffffff" d="M 264.234375 321.410156 C 235.363281 336.9375 201.671875 342.808594 169.289062 338.320312 C 138.425781 334.039062 109.003906 320.578125 85.785156 299.734375 C 61.671875 278.199219 44.515625 249.066406 37.28125 217.523438 C 30.253906 187.011719 32.59375 154.570312 43.824219 125.371094 C 55.195312 95.828125 75.519531 70.011719 101.632812 52.132812 C 129.535156 33.015625 164.191406 24.246094 197.816406 26.527344 C 228.886719 28.597656 259.066406 39.984375 283.730469 59.035156 C 309.429688 78.917969 328.515625 106.804688 338.023438 137.867188 C 347.1875 167.824219 347.050781 200.265625 337.886719 230.15625 C 328.652344 260.25 310.328125 287.308594 285.730469 306.914062 C 278.769531 312.503906 271.261719 317.542969 263.40625 321.824219 C 261.269531 322.996094 263.269531 321.960938 264.234375 321.410156 C 292.414062 306.085938 315.632812 283.097656 330.375 254.453125 C 345.191406 225.597656 350.90625 192.328125 346.359375 160.160156 C 341.675781 126.820312 326.105469 95.34375 302.472656 71.394531 C 279.667969 48.199219 249.695312 32.601562 217.726562 26.941406 C 185.621094 21.28125 152.136719 25.902344 122.714844 39.984375 C 94.535156 53.515625 70.28125 74.015625 53.816406 100.730469 C 36.867188 128.203125 28.597656 160.714844 30.460938 192.878906 C 32.386719 226.566406 45.410156 259.285156 67.042969 285.167969 C 87.921875 310.089844 116.445312 328.105469 147.863281 336.316406 C 179.417969 344.601562 213.316406 342.738281 243.769531 331.003906 C 250.523438 328.378906 257.066406 325.273438 263.476562 321.824219 C 264.371094 321.410156 266.4375 320.234375 264.234375 321.410156 Z M 264.234375 321.410156 " fill-opacity="1" fill-rule="nonzero"/></g><g clip-path="url(#203a3cb667)"><path fill="#ffffff" d="M 76.414062 293.175781 C 55.125 269.085938 41.484375 238.992188 37.695312 207.03125 C 34.042969 175.96875 39.691406 144.078125 54.023438 116.261719 C 69.25 86.578125 94.535156 61.039062 124.851562 46.957031 C 153.511719 33.636719 186.03125 29.425781 217.175781 34.671875 C 281.042969 45.507812 333.0625 96.378906 345.257812 160.160156 C 351.046875 190.535156 347.808594 222.421875 335.886719 250.933594 C 323.28125 281.234375 301.023438 307.121094 273.121094 324.375 C 217.796875 358.476562 143.109375 350.953125 93.640625 309.882812 C 87.507812 304.703125 81.789062 299.113281 76.414062 293.175781 C 76.207031 292.96875 73.519531 295.039062 73.3125 294.832031 C 95.5 319.613281 124.988281 337.007812 157.507812 344.050781 C 189.269531 350.953125 222.960938 347.707031 252.863281 334.867188 C 281.320312 322.582031 306.398438 302.769531 323.898438 277.09375 C 342.296875 250.105469 351.871094 217.453125 351.113281 184.804688 C 350.355469 151.878906 339.195312 119.574219 319.285156 93.34375 C 299.097656 66.699219 270.640625 46.820312 238.535156 37.292969 C 207.53125 28.042969 173.699219 28.664062 143.039062 39.15625 C 113.894531 49.167969 87.300781 67.390625 68.007812 91.480469 C 47.613281 116.949219 35.558594 148.703125 33.765625 181.351562 C 31.976562 214.210938 40.585938 247.203125 58.292969 274.882812 C 62.773438 281.925781 67.871094 288.550781 73.382812 294.765625 C 73.589844 295.039062 76.277344 292.96875 76.414062 293.175781 Z M 76.414062 293.175781 " fill-opacity="1" fill-rule="nonzero"/></g><g fill="#ffffff" fill-opacity="1"><g transform="translate(61.483401, 170.921829)"><g><path d="M 11.625 -3.84375 C 13.425781 -3.84375 15.050781 -4.222656 16.5 -4.984375 C 17.957031 -5.742188 19.109375 -6.84375 19.953125 -8.28125 C 20.804688 -9.71875 21.234375 -11.390625 21.234375 -13.296875 C 21.234375 -16.203125 19.453125 -17.65625 15.890625 -17.65625 C 14.222656 -17.65625 12.867188 -17.332031 11.828125 -16.6875 C 10.796875 -16.050781 9.757812 -15.210938 8.71875 -14.171875 C 8.09375 -13.484375 7.644531 -13.140625 7.375 -13.140625 C 6.363281 -13.140625 5.488281 -13.378906 4.75 -13.859375 C 4.007812 -14.347656 3.640625 -15.078125 3.640625 -16.046875 C 3.640625 -16.316406 3.707031 -16.679688 3.84375 -17.140625 C 6.164062 -24.054688 7.328125 -28.070312 7.328125 -29.1875 C 7.328125 -30.289062 7.410156 -31.144531 7.578125 -31.75 C 7.753906 -32.351562 8.097656 -32.8125 8.609375 -33.125 C 9.128906 -33.4375 9.925781 -33.59375 11 -33.59375 C 11.28125 -33.59375 11.550781 -33.570312 11.8125 -33.53125 C 12.070312 -33.5 12.335938 -33.484375 12.609375 -33.484375 L 24.921875 -34.53125 L 27.3125 -34.734375 C 28.101562 -34.734375 28.765625 -34.507812 29.296875 -34.0625 C 29.835938 -33.613281 30.109375 -33.023438 30.109375 -32.296875 C 30.109375 -31.460938 29.898438 -30.769531 29.484375 -30.21875 C 29.078125 -29.664062 28.078125 -29.300781 26.484375 -29.125 L 13.140625 -27.78125 C 13.171875 -27.882812 12.925781 -27.050781 12.40625 -25.28125 C 11.644531 -22.820312 11.195312 -21.382812 11.0625 -20.96875 C 13.3125 -22.320312 15.75 -23 18.375 -23 C 20.039062 -23 21.582031 -22.648438 23 -21.953125 C 24.414062 -21.265625 25.554688 -20.226562 26.421875 -18.84375 C 27.285156 -17.457031 27.71875 -15.78125 27.71875 -13.8125 C 27.71875 -10.625 27.015625 -7.890625 25.609375 -5.609375 C 24.210938 -3.328125 22.269531 -1.585938 19.78125 -0.390625 C 17.289062 0.804688 14.4375 1.40625 11.21875 1.40625 C 9.726562 1.40625 8.210938 1.125 6.671875 0.5625 C 5.128906 0.0078125 3.851562 -0.75 2.84375 -1.71875 C 1.84375 -2.6875 1.34375 -3.738281 1.34375 -4.875 C 1.34375 -5.53125 1.59375 -6.066406 2.09375 -6.484375 C 2.601562 -6.898438 3.253906 -7.109375 4.046875 -7.109375 C 4.359375 -7.109375 4.75 -6.992188 5.21875 -6.765625 C 5.6875 -6.546875 6.335938 -6.195312 7.171875 -5.71875 C 8.140625 -5.125 8.976562 -4.660156 9.6875 -4.328125 C 10.394531 -4.003906 11.039062 -3.84375 11.625 -3.84375 Z M 11.625 -3.84375 "/></g></g></g><g fill="#ffffff" fill-opacity="1"><g transform="translate(93.201407, 170.921829)"><g><path d="M 13.296875 1.09375 C 10.941406 1.09375 8.914062 0.519531 7.21875 -0.625 C 5.519531 -1.769531 4.238281 -3.300781 3.375 -5.21875 C 2.507812 -7.132812 2.078125 -9.253906 2.078125 -11.578125 C 2.078125 -12.828125 2.195312 -14.039062 2.4375 -15.21875 C 3.507812 -20.925781 5.515625 -25.492188 8.453125 -28.921875 C 11.398438 -32.347656 15.488281 -34.0625 20.71875 -34.0625 C 23.96875 -34.0625 26.441406 -33.03125 28.140625 -30.96875 C 29.835938 -28.90625 30.6875 -25.882812 30.6875 -21.90625 C 30.6875 -18.269531 30.0625 -14.695312 28.8125 -11.1875 C 27.570312 -7.675781 25.644531 -4.75 23.03125 -2.40625 C 20.414062 -0.0703125 17.171875 1.09375 13.296875 1.09375 Z M 13.140625 -3.84375 C 15.210938 -3.84375 17.085938 -4.789062 18.765625 -6.6875 C 20.441406 -8.59375 21.738281 -11 22.65625 -13.90625 C 23.582031 -16.820312 24.046875 -19.71875 24.046875 -22.59375 C 24.046875 -26.5 22.414062 -28.453125 19.15625 -28.453125 C 17.25 -28.453125 15.484375 -27.523438 13.859375 -25.671875 C 12.234375 -23.816406 10.941406 -21.53125 9.984375 -18.8125 C 9.035156 -16.101562 8.5625 -13.570312 8.5625 -11.21875 C 8.5625 -8.757812 8.953125 -6.914062 9.734375 -5.6875 C 10.515625 -4.457031 11.648438 -3.84375 13.140625 -3.84375 Z M 13.140625 -3.84375 "/></g></g></g><g fill="#ffffff" fill-opacity="1"><g transform="translate(126.009563, 170.921829)"><g/></g></g><g fill="#ffffff" fill-opacity="1"><g transform="translate(139.506586, 170.921829)"><g><path d="M 2.59375 -28.5625 C 2.59375 -29.039062 2.738281 -29.425781 3.03125 -29.71875 C 3.332031 -30.019531 3.738281 -30.289062 4.25 -30.53125 C 4.425781 -30.632812 5.054688 -30.945312 6.140625 -31.46875 C 7.234375 -31.988281 8.285156 -32.382812 9.296875 -32.65625 C 9.609375 -33.351562 10.082031 -33.925781 10.71875 -34.375 C 11.363281 -34.820312 12.1875 -35.046875 13.1875 -35.046875 C 13.78125 -35.046875 14.265625 -34.929688 14.640625 -34.703125 C 15.023438 -34.484375 15.285156 -34.203125 15.421875 -33.859375 C 16.703125 -34.265625 18.242188 -34.46875 20.046875 -34.46875 C 22.296875 -34.46875 24.238281 -33.992188 25.875 -33.046875 C 27.519531 -32.097656 28.765625 -30.789062 29.609375 -29.125 C 30.460938 -27.46875 30.890625 -25.597656 30.890625 -23.515625 C 30.890625 -23.097656 30.835938 -22.53125 30.734375 -21.8125 C 29.316406 -13.707031 23.257812 -9.65625 12.5625 -9.65625 C 11.59375 -9.65625 10.882812 -9.671875 10.4375 -9.703125 L 9.765625 -7.21875 C 9.035156 -4.550781 8.671875 -3.179688 8.671875 -3.109375 C 8.390625 -1.898438 7.960938 -0.96875 7.390625 -0.3125 C 6.828125 0.34375 5.90625 0.671875 4.625 0.671875 C 3.550781 0.671875 2.757812 0.488281 2.25 0.125 C 1.75 -0.238281 1.5 -0.851562 1.5 -1.71875 C 1.5 -2.09375 1.550781 -2.453125 1.65625 -2.796875 L 7.9375 -27.046875 C 6.144531 -26.523438 4.78125 -25.816406 3.84375 -24.921875 C 3.457031 -25.335938 3.148438 -25.882812 2.921875 -26.5625 C 2.703125 -27.238281 2.59375 -27.90625 2.59375 -28.5625 Z M 11.53125 -14.53125 C 11.945312 -14.5 12.535156 -14.484375 13.296875 -14.484375 C 16.578125 -14.484375 19.175781 -15.101562 21.09375 -16.34375 C 23.019531 -17.59375 24.257812 -19.519531 24.8125 -22.125 C 24.914062 -22.707031 24.96875 -23.140625 24.96875 -23.421875 C 24.96875 -25.359375 24.429688 -26.800781 23.359375 -27.75 C 22.285156 -28.707031 20.78125 -29.1875 18.84375 -29.1875 C 17.8125 -29.1875 16.476562 -28.941406 14.84375 -28.453125 C 13.5 -23.085938 12.394531 -18.445312 11.53125 -14.53125 Z M 11.53125 -14.53125 "/></g></g></g><g fill="#ffffff" fill-opacity="1"><g transform="translate(171.016947, 170.921829)"><g><path d="M 10.484375 1.09375 C 7.097656 1.09375 4.625 0.421875 3.0625 -0.921875 C 1.507812 -2.273438 0.734375 -4.078125 0.734375 -6.328125 C 0.734375 -9.617188 1.550781 -12.664062 3.1875 -15.46875 C 4.832031 -18.269531 7.03125 -20.492188 9.78125 -22.140625 C 12.539062 -23.785156 15.507812 -24.609375 18.6875 -24.609375 C 20.625 -24.609375 22.25 -24.0625 23.5625 -22.96875 C 24.882812 -21.882812 25.546875 -20.285156 25.546875 -18.171875 C 25.546875 -16.960938 25.15625 -15.96875 24.375 -15.1875 C 23.59375 -14.40625 22.472656 -13.710938 21.015625 -13.109375 C 19.566406 -12.503906 17.21875 -11.648438 13.96875 -10.546875 C 11.019531 -9.578125 8.628906 -8.757812 6.796875 -8.09375 C 6.660156 -7.582031 6.59375 -7.046875 6.59375 -6.484375 C 6.59375 -5.515625 7 -4.769531 7.8125 -4.25 C 8.625 -3.738281 9.773438 -3.484375 11.265625 -3.484375 C 12.203125 -3.484375 13.273438 -3.671875 14.484375 -4.046875 C 15.691406 -4.429688 16.453125 -4.914062 16.765625 -5.5 C 17.941406 -7.644531 19.015625 -8.71875 19.984375 -8.71875 C 21.410156 -8.71875 22.375 -8.445312 22.875 -7.90625 C 23.375 -7.375 23.640625 -6.78125 23.671875 -6.125 C 23.253906 -5.019531 22.441406 -3.90625 21.234375 -2.78125 C 20.023438 -1.65625 18.484375 -0.726562 16.609375 0 C 14.742188 0.726562 12.703125 1.09375 10.484375 1.09375 Z M 8.25 -12.875 C 11.675781 -13.976562 14.5 -15.003906 16.71875 -15.953125 C 18.9375 -16.910156 20.046875 -17.859375 20.046875 -18.796875 C 20.046875 -19.210938 19.816406 -19.550781 19.359375 -19.8125 C 18.910156 -20.070312 18.425781 -20.203125 17.90625 -20.203125 C 16.875 -20.203125 15.691406 -19.800781 14.359375 -19 C 13.023438 -18.207031 11.785156 -17.238281 10.640625 -16.09375 C 9.503906 -14.945312 8.707031 -13.875 8.25 -12.875 Z M 8.25 -12.875 "/></g></g></g><g fill="#ffffff" fill-opacity="1"><g transform="translate(197.699527, 170.921829)"><g><path d="M 7.0625 -1.96875 C 7.03125 -1.757812 6.953125 -1.351562 6.828125 -0.75 C 6.703125 -0.144531 6.40625 0.273438 5.9375 0.515625 C 5.476562 0.753906 4.742188 0.875 3.734375 0.875 C 2.597656 0.875 1.769531 0.753906 1.25 0.515625 C 0.726562 0.273438 0.46875 -0.238281 0.46875 -1.03125 L 2.953125 -10.953125 C 4.335938 -16.660156 5.257812 -20.296875 5.71875 -21.859375 L 4.40625 -23.421875 C 4.300781 -23.523438 4.25 -23.644531 4.25 -23.78125 C 4.25 -24.125 4.628906 -24.40625 5.390625 -24.625 C 6.160156 -24.851562 7.21875 -24.96875 8.5625 -24.96875 C 9.78125 -24.96875 10.59375 -24.628906 11 -23.953125 C 11.414062 -23.285156 11.675781 -22.414062 11.78125 -21.34375 L 11.421875 -19.984375 C 12.523438 -21.335938 13.8125 -22.453125 15.28125 -23.328125 C 16.757812 -24.210938 18.070312 -24.65625 19.21875 -24.65625 C 20.695312 -24.65625 21.851562 -24.394531 22.6875 -23.875 C 23.519531 -23.363281 23.9375 -22.691406 23.9375 -21.859375 C 23.9375 -21.128906 23.6875 -20.375 23.1875 -19.59375 C 22.6875 -18.820312 22.050781 -18.164062 21.28125 -17.625 C 20.519531 -17.09375 19.78125 -16.789062 19.0625 -16.71875 C 18.363281 -16.71875 17.894531 -16.800781 17.65625 -16.96875 C 17.414062 -17.144531 17.296875 -17.40625 17.296875 -17.75 L 17.59375 -19.46875 C 14.832031 -18.707031 12.328125 -16.875 10.078125 -13.96875 Z M 7.0625 -1.96875 "/></g></g></g><g fill="#ffffff" fill-opacity="1"><g transform="translate(218.983289, 170.921829)"><g><path d="M 18.171875 -20.09375 C 17.753906 -20.300781 17.234375 -20.40625 16.609375 -20.40625 C 15.054688 -20.40625 13.5 -20.09375 11.9375 -19.46875 C 10.382812 -18.84375 9.609375 -18.046875 9.609375 -17.078125 C 9.609375 -16.390625 9.914062 -15.835938 10.53125 -15.421875 C 11.15625 -15.003906 12.144531 -14.535156 13.5 -14.015625 C 14.957031 -13.429688 16.132812 -12.878906 17.03125 -12.359375 C 17.925781 -11.835938 18.710938 -11.082031 19.390625 -10.09375 C 20.066406 -9.113281 20.40625 -7.859375 20.40625 -6.328125 C 20.40625 -3.835938 19.375 -1.925781 17.3125 -0.59375 C 15.257812 0.738281 12.5 1.40625 9.03125 1.40625 C 7.332031 1.40625 5.753906 1.144531 4.296875 0.625 C 2.847656 0.101562 1.695312 -0.5625 0.84375 -1.375 C 0 -2.1875 -0.453125 -2.992188 -0.515625 -3.796875 C -0.515625 -4.617188 -0.15625 -5.296875 0.5625 -5.828125 C 1.289062 -6.367188 2.316406 -6.726562 3.640625 -6.90625 C 3.671875 -6.207031 4.03125 -5.554688 4.71875 -4.953125 C 5.414062 -4.347656 6.238281 -3.863281 7.1875 -3.5 C 8.144531 -3.132812 8.96875 -2.953125 9.65625 -2.953125 C 10.832031 -2.953125 11.90625 -3.269531 12.875 -3.90625 C 13.84375 -4.550781 14.328125 -5.304688 14.328125 -6.171875 C 14.328125 -7.765625 12.785156 -9.03125 9.703125 -9.96875 C 7.734375 -10.5625 6.21875 -11.492188 5.15625 -12.765625 C 4.101562 -14.046875 3.578125 -15.398438 3.578125 -16.828125 C 3.578125 -19.628906 4.847656 -21.644531 7.390625 -22.875 C 9.941406 -24.101562 13.191406 -24.71875 17.140625 -24.71875 C 19.347656 -24.71875 21.054688 -24.457031 22.265625 -23.9375 C 23.484375 -23.414062 24.09375 -22.515625 24.09375 -21.234375 C 24.09375 -20.367188 23.769531 -19.609375 23.125 -18.953125 C 22.488281 -18.296875 21.582031 -17.96875 20.40625 -17.96875 C 19.363281 -17.96875 18.695312 -18.046875 18.40625 -18.203125 C 18.113281 -18.359375 17.945312 -18.625 17.90625 -19 C 17.90625 -19.34375 17.992188 -19.707031 18.171875 -20.09375 Z M 18.171875 -20.09375 "/></g></g></g><g fill="#ffffff" fill-opacity="1"><g transform="translate(242.862636, 170.921829)"><g><path d="M 10.484375 1.09375 C 7.097656 1.09375 4.625 0.421875 3.0625 -0.921875 C 1.507812 -2.273438 0.734375 -4.078125 0.734375 -6.328125 C 0.734375 -9.617188 1.550781 -12.664062 3.1875 -15.46875 C 4.832031 -18.269531 7.03125 -20.492188 9.78125 -22.140625 C 12.539062 -23.785156 15.507812 -24.609375 18.6875 -24.609375 C 20.625 -24.609375 22.25 -24.0625 23.5625 -22.96875 C 24.882812 -21.882812 25.546875 -20.285156 25.546875 -18.171875 C 25.546875 -16.960938 25.15625 -15.96875 24.375 -15.1875 C 23.59375 -14.40625 22.472656 -13.710938 21.015625 -13.109375 C 19.566406 -12.503906 17.21875 -11.648438 13.96875 -10.546875 C 11.019531 -9.578125 8.628906 -8.757812 6.796875 -8.09375 C 6.660156 -7.582031 6.59375 -7.046875 6.59375 -6.484375 C 6.59375 -5.515625 7 -4.769531 7.8125 -4.25 C 8.625 -3.738281 9.773438 -3.484375 11.265625 -3.484375 C 12.203125 -3.484375 13.273438 -3.671875 14.484375 -4.046875 C 15.691406 -4.429688 16.453125 -4.914062 16.765625 -5.5 C 17.941406 -7.644531 19.015625 -8.71875 19.984375 -8.71875 C 21.410156 -8.71875 22.375 -8.445312 22.875 -7.90625 C 23.375 -7.375 23.640625 -6.78125 23.671875 -6.125 C 23.253906 -5.019531 22.441406 -3.90625 21.234375 -2.78125 C 20.023438 -1.65625 18.484375 -0.726562 16.609375 0 C 14.742188 0.726562 12.703125 1.09375 10.484375 1.09375 Z M 8.25 -12.875 C 11.675781 -13.976562 14.5 -15.003906 16.71875 -15.953125 C 18.9375 -16.910156 20.046875 -17.859375 20.046875 -18.796875 C 20.046875 -19.210938 19.816406 -19.550781 19.359375 -19.8125 C 18.910156 -20.070312 18.425781 -20.203125 17.90625 -20.203125 C 16.875 -20.203125 15.691406 -19.800781 14.359375 -19 C 13.023438 -18.207031 11.785156 -17.238281 10.640625 -16.09375 C 9.503906 -14.945312 8.707031 -13.875 8.25 -12.875 Z M 8.25 -12.875 "/></g></g></g><g fill="#ffffff" fill-opacity="1"><g transform="translate(269.545216, 170.921829)"><g><path d="M 4.3125 -23.734375 C 4.207031 -23.835938 4.15625 -23.957031 4.15625 -24.09375 C 4.15625 -24.4375 4.535156 -24.71875 5.296875 -24.9375 C 6.054688 -25.164062 7.113281 -25.28125 8.46875 -25.28125 C 9.707031 -25.28125 10.617188 -24.957031 11.203125 -24.3125 C 11.796875 -23.675781 12.144531 -22.910156 12.25 -22.015625 L 11.3125 -18.640625 C 12.039062 -19.640625 13.0625 -20.597656 14.375 -21.515625 C 15.695312 -22.429688 17.03125 -23.164062 18.375 -23.71875 C 19.726562 -24.28125 20.835938 -24.5625 21.703125 -24.5625 C 23.535156 -24.5625 24.867188 -24.222656 25.703125 -23.546875 C 26.535156 -22.867188 26.953125 -21.804688 26.953125 -20.359375 C 24.910156 -15.023438 23.554688 -9.273438 22.890625 -3.109375 L 23.625 -0.578125 C 23.207031 0.222656 22.625 0.859375 21.875 1.328125 C 21.132812 1.796875 20.054688 2.03125 18.640625 2.03125 C 17.804688 2.03125 17.195312 1.75 16.8125 1.1875 C 16.4375 0.632812 16.25 -0.0507812 16.25 -0.875 C 16.25 -3.195312 16.585938 -5.75 17.265625 -8.53125 C 17.941406 -11.320312 18.726562 -14.171875 19.625 -17.078125 C 19.96875 -18.191406 20.140625 -18.765625 20.140625 -18.796875 C 20.140625 -19.273438 19.863281 -19.515625 19.3125 -19.515625 C 18.550781 -19.515625 17.398438 -18.976562 15.859375 -17.90625 C 14.316406 -16.832031 12.734375 -15.023438 11.109375 -12.484375 C 9.484375 -9.941406 8.171875 -6.613281 7.171875 -2.5 C 7.097656 -2.289062 7.007812 -1.90625 6.90625 -1.34375 C 6.800781 -0.789062 6.523438 -0.398438 6.078125 -0.171875 C 5.628906 0.046875 4.898438 0.15625 3.890625 0.15625 C 2.753906 0.15625 1.914062 0.0351562 1.375 -0.203125 C 0.84375 -0.453125 0.578125 -0.972656 0.578125 -1.765625 C 0.679688 -2.253906 0.832031 -2.84375 1.03125 -3.53125 C 3.039062 -11.59375 4.582031 -17.804688 5.65625 -22.171875 Z M 4.3125 -23.734375 "/></g></g></g><g fill="#ffffff" fill-opacity="1"><g transform="translate(297.525588, 170.921829)"><g><path d="M 8.671875 -5.71875 C 8.671875 -4.914062 8.878906 -4.28125 9.296875 -3.8125 C 9.710938 -3.34375 10.300781 -3.109375 11.0625 -3.109375 C 12.09375 -3.109375 12.945312 -3.410156 13.625 -4.015625 C 14.300781 -4.628906 15.019531 -5.488281 15.78125 -6.59375 C 16.332031 -7.382812 16.78125 -7.953125 17.125 -8.296875 C 17.476562 -8.648438 17.878906 -8.828125 18.328125 -8.828125 C 19.222656 -8.828125 19.863281 -8.710938 20.25 -8.484375 C 20.632812 -8.265625 20.828125 -7.804688 20.828125 -7.109375 C 20.828125 -6.796875 20.789062 -6.421875 20.71875 -5.984375 C 20.644531 -5.554688 20.554688 -5.238281 20.453125 -5.03125 C 19.628906 -3.269531 18.269531 -1.75 16.375 -0.46875 C 14.488281 0.8125 12.351562 1.453125 9.96875 1.453125 C 7.582031 1.453125 5.78125 0.875 4.5625 -0.28125 C 3.351562 -1.445312 2.75 -3.101562 2.75 -5.25 C 2.75 -5.5625 2.90625 -6.375 3.21875 -7.6875 C 3.53125 -9 3.925781 -10.570312 4.40625 -12.40625 L 5.859375 -18.328125 L 2.703125 -18.0625 C 2.285156 -18.0625 1.972656 -18.21875 1.765625 -18.53125 C 1.554688 -18.84375 1.453125 -19.222656 1.453125 -19.671875 C 1.453125 -20.535156 1.765625 -21.40625 2.390625 -22.28125 C 2.460938 -22.382812 2.804688 -22.484375 3.421875 -22.578125 C 4.046875 -22.679688 4.8125 -22.785156 5.71875 -22.890625 L 7.109375 -23.046875 L 8.875 -30.640625 C 9.21875 -31.535156 9.742188 -32.234375 10.453125 -32.734375 C 11.171875 -33.234375 11.84375 -33.484375 12.46875 -33.484375 C 13.15625 -33.484375 13.738281 -33.273438 14.21875 -32.859375 C 14.707031 -32.453125 14.96875 -31.96875 15 -31.40625 L 13.140625 -23.625 C 14.484375 -23.800781 15.734375 -23.945312 16.890625 -24.0625 C 18.054688 -24.1875 18.96875 -24.25 19.625 -24.25 C 20.9375 -24.25 21.59375 -23.488281 21.59375 -21.96875 C 21.59375 -21.375 21.34375 -20.84375 20.84375 -20.375 C 20.34375 -19.90625 19.800781 -19.617188 19.21875 -19.515625 L 11.9375 -18.796875 Z M 8.671875 -5.71875 "/></g></g></g><g fill="#ffffff" fill-opacity="1"><g transform="translate(124.35968, 240.39782)"><g><path d="M 21.25 -12.25 L 23.734375 -12.25 L 23.734375 -2.90625 C 22.585938 -1.90625 21.234375 -1.132812 19.671875 -0.59375 C 18.109375 -0.0625 16.460938 0.203125 14.734375 0.203125 C 12.285156 0.203125 10.082031 -0.332031 8.125 -1.40625 C 6.164062 -2.476562 4.625 -3.960938 3.5 -5.859375 C 2.375 -7.765625 1.8125 -9.894531 1.8125 -12.25 C 1.8125 -14.601562 2.375 -16.726562 3.5 -18.625 C 4.625 -20.53125 6.164062 -22.019531 8.125 -23.09375 C 10.082031 -24.164062 12.296875 -24.703125 14.765625 -24.703125 C 16.628906 -24.703125 18.34375 -24.40625 19.90625 -23.8125 C 21.476562 -23.21875 22.800781 -22.335938 23.875 -21.171875 L 22.265625 -19.53125 C 20.328125 -21.445312 17.863281 -22.40625 14.875 -22.40625 C 12.894531 -22.40625 11.101562 -21.96875 9.5 -21.09375 C 7.90625 -20.21875 6.648438 -19.003906 5.734375 -17.453125 C 4.828125 -15.898438 4.375 -14.164062 4.375 -12.25 C 4.375 -10.332031 4.828125 -8.601562 5.734375 -7.0625 C 6.648438 -5.53125 7.898438 -4.316406 9.484375 -3.421875 C 11.066406 -2.535156 12.851562 -2.09375 14.84375 -2.09375 C 17.363281 -2.09375 19.5 -2.722656 21.25 -3.984375 Z M 21.25 -12.25 "/></g></g></g><g fill="#ffffff" fill-opacity="1"><g transform="translate(151.408568, 240.39782)"><g><path d="M 3.46875 -18.40625 L 5.953125 -18.40625 L 5.953125 0 L 3.46875 0 Z M 4.71875 -22.4375 C 4.207031 -22.4375 3.773438 -22.609375 3.421875 -22.953125 C 3.078125 -23.304688 2.90625 -23.726562 2.90625 -24.21875 C 2.90625 -24.6875 3.078125 -25.09375 3.421875 -25.4375 C 3.773438 -25.789062 4.207031 -25.96875 4.71875 -25.96875 C 5.226562 -25.96875 5.65625 -25.796875 6 -25.453125 C 6.351562 -25.117188 6.53125 -24.71875 6.53125 -24.25 C 6.53125 -23.738281 6.351562 -23.304688 6 -22.953125 C 5.65625 -22.609375 5.226562 -22.4375 4.71875 -22.4375 Z M 4.71875 -22.4375 "/></g></g></g><g fill="#ffffff" fill-opacity="1"><g transform="translate(160.821447, 240.39782)"><g><path d="M 18.9375 -18.40625 L 10.75 0 L 8.1875 0 L 0.03125 -18.40625 L 2.625 -18.40625 L 9.515625 -2.734375 L 16.484375 -18.40625 Z M 18.9375 -18.40625 "/></g></g></g><g fill="#ffffff" fill-opacity="1"><g transform="translate(179.787167, 240.39782)"><g><path d="M 19.5 -8.4375 L 4.09375 -8.4375 C 4.238281 -6.519531 4.972656 -4.972656 6.296875 -3.796875 C 7.628906 -2.617188 9.3125 -2.03125 11.34375 -2.03125 C 12.488281 -2.03125 13.535156 -2.234375 14.484375 -2.640625 C 15.441406 -3.046875 16.269531 -3.644531 16.96875 -4.4375 L 18.375 -2.828125 C 17.5625 -1.847656 16.539062 -1.101562 15.3125 -0.59375 C 14.082031 -0.0820312 12.734375 0.171875 11.265625 0.171875 C 9.378906 0.171875 7.707031 -0.226562 6.25 -1.03125 C 4.789062 -1.832031 3.648438 -2.945312 2.828125 -4.375 C 2.015625 -5.800781 1.609375 -7.410156 1.609375 -9.203125 C 1.609375 -11.003906 2 -12.613281 2.78125 -14.03125 C 3.5625 -15.457031 4.632812 -16.566406 6 -17.359375 C 7.363281 -18.148438 8.898438 -18.546875 10.609375 -18.546875 C 12.304688 -18.546875 13.832031 -18.148438 15.1875 -17.359375 C 16.539062 -16.566406 17.601562 -15.460938 18.375 -14.046875 C 19.144531 -12.640625 19.53125 -11.023438 19.53125 -9.203125 Z M 10.609375 -16.421875 C 8.828125 -16.421875 7.335938 -15.851562 6.140625 -14.71875 C 4.941406 -13.582031 4.257812 -12.109375 4.09375 -10.296875 L 17.15625 -10.296875 C 16.988281 -12.109375 16.300781 -13.582031 15.09375 -14.71875 C 13.894531 -15.851562 12.398438 -16.421875 10.609375 -16.421875 Z M 10.609375 -16.421875 "/></g></g></g><g fill="#ffffff" fill-opacity="1"><g transform="translate(200.922389, 240.39782)"><g/></g></g><g fill="#ffffff" fill-opacity="1"><g transform="translate(210.090319, 240.39782)"><g><path d="M 20.0625 -18.40625 L 20.0625 0 L 17.671875 0 L 17.671875 -3.359375 C 17.015625 -2.242188 16.113281 -1.375 14.96875 -0.75 C 13.832031 -0.132812 12.53125 0.171875 11.0625 0.171875 C 8.65625 0.171875 6.757812 -0.492188 5.375 -1.828125 C 3.988281 -3.171875 3.296875 -5.140625 3.296875 -7.734375 L 3.296875 -18.40625 L 5.78125 -18.40625 L 5.78125 -7.984375 C 5.78125 -6.046875 6.253906 -4.570312 7.203125 -3.5625 C 8.160156 -2.5625 9.53125 -2.0625 11.3125 -2.0625 C 13.238281 -2.0625 14.757812 -2.648438 15.875 -3.828125 C 17 -5.003906 17.5625 -6.644531 17.5625 -8.75 L 17.5625 -18.40625 Z M 20.0625 -18.40625 "/></g></g></g><g fill="#ffffff" fill-opacity="1"><g transform="translate(233.640004, 240.39782)"><g><path d="M 12.953125 -18.546875 C 14.679688 -18.546875 16.242188 -18.15625 17.640625 -17.375 C 19.035156 -16.59375 20.128906 -15.488281 20.921875 -14.0625 C 21.722656 -12.644531 22.125 -11.023438 22.125 -9.203125 C 22.125 -7.359375 21.722656 -5.722656 20.921875 -4.296875 C 20.128906 -2.878906 19.039062 -1.78125 17.65625 -1 C 16.269531 -0.21875 14.703125 0.171875 12.953125 0.171875 C 11.453125 0.171875 10.101562 -0.132812 8.90625 -0.75 C 7.707031 -1.375 6.722656 -2.28125 5.953125 -3.46875 L 5.953125 6.796875 L 3.46875 6.796875 L 3.46875 -18.40625 L 5.84375 -18.40625 L 5.84375 -14.765625 C 6.59375 -15.984375 7.578125 -16.914062 8.796875 -17.5625 C 10.023438 -18.21875 11.410156 -18.546875 12.953125 -18.546875 Z M 12.78125 -2.03125 C 14.0625 -2.03125 15.222656 -2.328125 16.265625 -2.921875 C 17.316406 -3.515625 18.140625 -4.359375 18.734375 -5.453125 C 19.335938 -6.554688 19.640625 -7.804688 19.640625 -9.203125 C 19.640625 -10.609375 19.335938 -11.851562 18.734375 -12.9375 C 18.140625 -14.019531 17.316406 -14.863281 16.265625 -15.46875 C 15.222656 -16.070312 14.0625 -16.375 12.78125 -16.375 C 11.46875 -16.375 10.289062 -16.070312 9.25 -15.46875 C 8.21875 -14.863281 7.40625 -14.019531 6.8125 -12.9375 C 6.21875 -11.851562 5.921875 -10.609375 5.921875 -9.203125 C 5.921875 -7.804688 6.21875 -6.554688 6.8125 -5.453125 C 7.40625 -4.359375 8.21875 -3.515625 9.25 -2.921875 C 10.289062 -2.328125 11.46875 -2.03125 12.78125 -2.03125 Z M 12.78125 -2.03125 "/></g></g></g></svg>